<?xml version="1.0" standalone="no"?>
<!DOCTYPE svg PUBLIC "-//W3C//DTD SVG 20010904//EN"
 "http://www.w3.org/TR/2001/REC-SVG-20010904/DTD/svg10.dtd">
<svg version="1.0" xmlns="http://www.w3.org/2000/svg"
 width="192.000000pt" height="192.000000pt" viewBox="0 0 192.000000 192.000000"
 preserveAspectRatio="xMidYMid meet">

<g transform="translate(0.000000,192.000000) scale(0.100000,-0.100000)"
fill="#000000" stroke="none">
<path d="M1366 1760 c-665 -76 -1046 -500 -1046 -1163 0 -101 -4 -130 -34
-234 -18 -65 -37 -137 -41 -161 l-7 -42 81 0 c80 0 81 0 87 27 3 16 17 70 31
121 21 75 30 93 47 97 12 2 53 9 91 15 203 32 443 152 639 320 67 57 179 174
200 207 4 8 -7 32 -29 60 -19 25 -32 50 -28 53 5 4 42 13 83 19 41 7 78 15 82
19 18 19 121 229 154 312 42 110 94 282 94 315 0 18 -7 24 -37 29 -67 12 -285
15 -367 6z m191 -158 c16 -10 9 -35 -42 -157 -53 -128 -96 -205 -120 -210 -11
-3 -90 -16 -175 -30 -85 -15 -156 -27 -157 -29 -2 -1 32 -49 74 -106 l77 -103
-69 -64 c-103 -93 -227 -179 -340 -234 -92 -44 -243 -95 -253 -84 -7 7 62 124
130 220 34 49 109 136 165 194 l102 106 -43 54 c-23 30 -48 57 -55 59 -16 5
-194 -177 -269 -276 -70 -94 -75 -89 -36 44 92 320 350 530 734 598 128 23
256 31 277 18z"/>
</g>
</svg>
